<mxfile host="app.diagrams.net" modified="2023-07-22T19:08:59.723Z" agent="Mozilla/5.0 (Windows NT 10.0; Win64; x64) AppleWebKit/537.36 (KHTML, like Gecko) Chrome/114.0.0.0 Safari/537.36 Edg/114.0.1823.82" etag="ufjSFaEgXt6uTlY8w0RX" version="21.6.5" type="github" pages="4">
  <diagram name="Top Level Operation" id="qobbH_qEaCiOYokqNmjl">
    <mxGraphModel dx="1426" dy="754" grid="1" gridSize="10" guides="1" tooltips="1" connect="1" arrows="1" fold="1" page="1" pageScale="1" pageWidth="850" pageHeight="1100" background="none" math="0" shadow="0">
      <root>
        <mxCell id="0" />
        <mxCell id="1" parent="0" />
        <UserObject label="Halo_forge_Bot&lt;br&gt;" link="data:page/id,8z3xajf2Ae4xdoAWjeCd" id="zGkEpsEi8-C7hngQqERd-1">
          <mxCell style="rounded=1;whiteSpace=wrap;html=1;snapToPoint=0;fixDash=0;container=0;dropTarget=0;recursiveResize=1;" vertex="1" parent="1">
            <mxGeometry x="360" y="260" width="120" height="60" as="geometry">
              <mxRectangle x="360" y="260" width="120" height="30" as="alternateBounds" />
            </mxGeometry>
          </mxCell>
        </UserObject>
        <mxCell id="zGkEpsEi8-C7hngQqERd-2" value="Halo Infinite" style="rounded=1;whiteSpace=wrap;html=1;" vertex="1" parent="1">
          <mxGeometry x="360" y="400" width="120" height="60" as="geometry" />
        </mxCell>
        <mxCell id="zGkEpsEi8-C7hngQqERd-3" value="Blender" style="rounded=1;whiteSpace=wrap;html=1;" vertex="1" parent="1">
          <mxGeometry x="360" y="120" width="120" height="60" as="geometry" />
        </mxCell>
        <mxCell id="zGkEpsEi8-C7hngQqERd-4" value="" style="endArrow=classic;html=1;rounded=0;" edge="1" parent="1">
          <mxGeometry width="50" height="50" relative="1" as="geometry">
            <mxPoint x="419.5" y="180" as="sourcePoint" />
            <mxPoint x="419.5" y="260" as="targetPoint" />
          </mxGeometry>
        </mxCell>
        <mxCell id="zGkEpsEi8-C7hngQqERd-5" value="DCjson" style="edgeLabel;html=1;align=center;verticalAlign=middle;resizable=0;points=[];rotation=0;" vertex="1" connectable="0" parent="zGkEpsEi8-C7hngQqERd-4">
          <mxGeometry x="-0.375" y="-2" relative="1" as="geometry">
            <mxPoint x="33" y="5" as="offset" />
          </mxGeometry>
        </mxCell>
        <mxCell id="zGkEpsEi8-C7hngQqERd-6" value="" style="endArrow=classic;html=1;rounded=0;" edge="1" parent="1">
          <mxGeometry width="50" height="50" relative="1" as="geometry">
            <mxPoint x="419.5" y="320" as="sourcePoint" />
            <mxPoint x="419.5" y="400" as="targetPoint" />
          </mxGeometry>
        </mxCell>
        <mxCell id="zGkEpsEi8-C7hngQqERd-7" value="KeyInputs" style="edgeLabel;html=1;align=center;verticalAlign=middle;resizable=0;points=[];" vertex="1" connectable="0" parent="zGkEpsEi8-C7hngQqERd-6">
          <mxGeometry x="-0.225" y="2" relative="1" as="geometry">
            <mxPoint x="29" y="-1" as="offset" />
          </mxGeometry>
        </mxCell>
        <mxCell id="zGkEpsEi8-C7hngQqERd-8" value="&lt;h1&gt;Top Level Operation&lt;/h1&gt;&lt;p&gt;This diagram represents the top level object flow of our Blender&amp;gt;Forge process.&lt;/p&gt;&lt;p&gt;&lt;br&gt;&lt;/p&gt;&lt;p&gt;Diagram Author- TubbyMcFatDuck&lt;/p&gt;" style="text;html=1;strokeColor=default;fillColor=none;spacing=5;spacingTop=-20;whiteSpace=wrap;overflow=hidden;rounded=0;" vertex="1" parent="1">
          <mxGeometry x="620" y="20" width="210" height="270" as="geometry" />
        </mxCell>
      </root>
    </mxGraphModel>
  </diagram>
  <diagram id="8z3xajf2Ae4xdoAWjeCd" name="Halo_Forge_Bot">
    <mxGraphModel dx="1426" dy="754" grid="1" gridSize="10" guides="1" tooltips="1" connect="1" arrows="1" fold="1" page="1" pageScale="1" pageWidth="850" pageHeight="1100" math="0" shadow="0">
      <root>
        <mxCell id="0" />
        <mxCell id="1" parent="0" />
        <mxCell id="iu1Z5C79OeCPNpXDj4VT-1" value="&lt;h1&gt;Halo_Forge_Bot&lt;/h1&gt;&lt;p&gt;This diagram represents the top level object flow of our Blender&amp;gt;Forge process.&lt;/p&gt;&lt;p&gt;&lt;br&gt;&lt;/p&gt;&lt;p&gt;Diagram Author- TubbyMcFatDuck&lt;/p&gt;" style="text;html=1;strokeColor=default;fillColor=none;spacing=5;spacingTop=-20;whiteSpace=wrap;overflow=hidden;rounded=0;" vertex="1" parent="1">
          <mxGeometry x="620" y="20" width="210" height="270" as="geometry" />
        </mxCell>
      </root>
    </mxGraphModel>
  </diagram>
  <diagram id="2_mRGCcukzweKVhuHHVU" name="Blender">
    <mxGraphModel dx="1426" dy="754" grid="1" gridSize="10" guides="1" tooltips="1" connect="1" arrows="1" fold="1" page="1" pageScale="1" pageWidth="850" pageHeight="1100" math="0" shadow="0">
      <root>
        <mxCell id="0" />
        <mxCell id="1" parent="0" />
      </root>
    </mxGraphModel>
  </diagram>
  <diagram id="7TAMEKfdQAMnWKltz3pr" name="Halo Infinite">
    <mxGraphModel dx="1426" dy="754" grid="1" gridSize="10" guides="1" tooltips="1" connect="1" arrows="1" fold="1" page="1" pageScale="1" pageWidth="850" pageHeight="1100" math="0" shadow="0">
      <root>
        <mxCell id="0" />
        <mxCell id="1" parent="0" />
      </root>
    </mxGraphModel>
  </diagram>
</mxfile>
